<svg width="32" height="32" viewBox="0 0 32 32" fill="none" xmlns="http://www.w3.org/2000/svg">
<path d="M16.574 7.33333C12.1006 7.33333 8.47774 11.0871 8.47774 15.7221C8.47774 17.5896 9.06768 19.3146 10.063 20.7096L8 25.3333L8.53927 25.0746L12.6942 23.0871C13.8451 23.7396 15.1661 24.1108 16.5704 24.1108C21.0402 24.1108 24.6667 20.3571 24.6667 15.7221C24.6703 11.0871 21.0438 7.33333 16.574 7.33333ZM20.8918 19.3033C20.8447 19.5358 20.747 19.7571 20.6059 19.9521C20.4321 20.1921 20.2077 20.3721 19.9508 20.4846C19.6938 20.5971 19.4115 20.6421 19.1292 20.6046C18.3728 20.5108 17.6417 20.2596 16.9866 19.8546C16.2302 19.3896 15.2132 18.6658 14.4459 17.6308C13.6279 16.6371 13.1828 15.4746 12.9005 14.6083C12.658 13.8621 12.5711 13.0671 12.6399 12.2833C12.6652 11.9871 12.7666 11.7096 12.9258 11.4733C13.0851 11.2371 13.3058 11.0458 13.5664 10.9221C13.7799 10.8171 14.0116 10.7683 14.2396 10.7683C14.5653 10.7683 14.9634 10.7646 15.2385 10.9671C15.6656 11.2783 15.8465 11.8933 15.8465 12.4333C15.8465 12.4821 15.8429 12.5346 15.8393 12.5833C15.814 12.8796 15.7886 13.1383 15.6258 13.3746C15.4665 13.6108 15.1734 13.8171 14.9128 13.9446C15.1118 15.0546 15.4557 15.8796 15.9298 16.4121C16.1325 16.7046 16.4075 16.9821 16.7586 17.2408C17.1097 17.4996 17.5331 17.7358 18.0362 17.9533C18.2099 17.7171 18.4669 17.4621 18.7238 17.3496C18.9772 17.2371 19.2305 17.2633 19.5128 17.3008C19.5599 17.3083 19.6106 17.3158 19.6576 17.3271C20.1643 17.4396 20.7072 17.7508 20.9135 18.2496C21.0438 18.5721 20.9605 18.9733 20.8918 19.3033Z" fill="#464646"/>
<circle cx="16" cy="16" r="15.5" stroke="#464646"/>
</svg>
